<mxfile host="app.diagrams.net" modified="2023-10-27T09:14:25.714Z" agent="Mozilla/5.0 (Windows NT 10.0; Win64; x64) AppleWebKit/537.36 (KHTML, like Gecko) Chrome/118.0.0.0 Safari/537.36 Edg/118.0.2088.61" etag="aYYw77W3AyTdz9t0lLvT" version="22.0.8" type="device">
  <diagram name="Page-1" id="xmxRPIP0L_uw-VZl5J0k">
    <mxGraphModel dx="2241" dy="1066" grid="1" gridSize="10" guides="1" tooltips="1" connect="1" arrows="1" fold="1" page="1" pageScale="1" pageWidth="850" pageHeight="1100" math="0" shadow="0">
      <root>
        <mxCell id="0" />
        <mxCell id="1" parent="0" />
        <mxCell id="1ZcIljTKb-19BykYpcTP-3" value="" style="edgeStyle=orthogonalEdgeStyle;rounded=0;orthogonalLoop=1;jettySize=auto;html=1;" edge="1" parent="1" source="1ZcIljTKb-19BykYpcTP-1" target="1ZcIljTKb-19BykYpcTP-2">
          <mxGeometry relative="1" as="geometry">
            <Array as="points">
              <mxPoint x="180" y="50" />
            </Array>
          </mxGeometry>
        </mxCell>
        <mxCell id="1ZcIljTKb-19BykYpcTP-7" value="" style="edgeStyle=orthogonalEdgeStyle;rounded=0;orthogonalLoop=1;jettySize=auto;html=1;" edge="1" parent="1" source="1ZcIljTKb-19BykYpcTP-1" target="1ZcIljTKb-19BykYpcTP-6">
          <mxGeometry relative="1" as="geometry">
            <Array as="points">
              <mxPoint x="580" y="50" />
            </Array>
          </mxGeometry>
        </mxCell>
        <mxCell id="1ZcIljTKb-19BykYpcTP-9" style="edgeStyle=orthogonalEdgeStyle;rounded=0;orthogonalLoop=1;jettySize=auto;html=1;exitX=0.25;exitY=1;exitDx=0;exitDy=0;entryX=0.25;entryY=0;entryDx=0;entryDy=0;" edge="1" parent="1" source="1ZcIljTKb-19BykYpcTP-1" target="1ZcIljTKb-19BykYpcTP-4">
          <mxGeometry relative="1" as="geometry" />
        </mxCell>
        <mxCell id="1ZcIljTKb-19BykYpcTP-1" value="&lt;font style=&quot;font-size: 36px;&quot;&gt;Main&lt;/font&gt;" style="rounded=0;whiteSpace=wrap;html=1;" vertex="1" parent="1">
          <mxGeometry x="360" y="40" width="120" height="60" as="geometry" />
        </mxCell>
        <mxCell id="1ZcIljTKb-19BykYpcTP-10" style="edgeStyle=orthogonalEdgeStyle;rounded=0;orthogonalLoop=1;jettySize=auto;html=1;exitX=1;exitY=0.5;exitDx=0;exitDy=0;entryX=0;entryY=0.75;entryDx=0;entryDy=0;" edge="1" parent="1" source="1ZcIljTKb-19BykYpcTP-2" target="1ZcIljTKb-19BykYpcTP-1">
          <mxGeometry relative="1" as="geometry" />
        </mxCell>
        <mxCell id="1ZcIljTKb-19BykYpcTP-2" value="&lt;font style=&quot;font-size: 36px;&quot;&gt;Input&lt;/font&gt;" style="whiteSpace=wrap;html=1;rounded=0;" vertex="1" parent="1">
          <mxGeometry x="120" y="80" width="120" height="60" as="geometry" />
        </mxCell>
        <mxCell id="1ZcIljTKb-19BykYpcTP-8" style="edgeStyle=orthogonalEdgeStyle;rounded=0;orthogonalLoop=1;jettySize=auto;html=1;exitX=0.75;exitY=0;exitDx=0;exitDy=0;entryX=0.75;entryY=1;entryDx=0;entryDy=0;" edge="1" parent="1" source="1ZcIljTKb-19BykYpcTP-4" target="1ZcIljTKb-19BykYpcTP-1">
          <mxGeometry relative="1" as="geometry" />
        </mxCell>
        <mxCell id="1ZcIljTKb-19BykYpcTP-4" value="&lt;font style=&quot;font-size: 24px;&quot;&gt;SubListSort&lt;/font&gt;" style="whiteSpace=wrap;html=1;rounded=0;" vertex="1" parent="1">
          <mxGeometry x="360" y="150" width="120" height="60" as="geometry" />
        </mxCell>
        <mxCell id="1ZcIljTKb-19BykYpcTP-6" value="&lt;font style=&quot;font-size: 36px;&quot;&gt;Display&lt;/font&gt;" style="whiteSpace=wrap;html=1;rounded=0;" vertex="1" parent="1">
          <mxGeometry x="520" y="80" width="120" height="60" as="geometry" />
        </mxCell>
        <mxCell id="1ZcIljTKb-19BykYpcTP-11" value="list-unsorted" style="text;html=1;strokeColor=none;fillColor=none;align=center;verticalAlign=middle;whiteSpace=wrap;rounded=0;" vertex="1" parent="1">
          <mxGeometry x="240" y="80" width="60" height="30" as="geometry" />
        </mxCell>
        <mxCell id="1ZcIljTKb-19BykYpcTP-12" value="list-unsorted" style="text;html=1;strokeColor=none;fillColor=none;align=center;verticalAlign=middle;whiteSpace=wrap;rounded=0;" vertex="1" parent="1">
          <mxGeometry x="330" y="110" width="60" height="30" as="geometry" />
        </mxCell>
        <mxCell id="1ZcIljTKb-19BykYpcTP-13" value="list-sorted" style="text;html=1;strokeColor=none;fillColor=none;align=center;verticalAlign=middle;whiteSpace=wrap;rounded=0;" vertex="1" parent="1">
          <mxGeometry x="450" y="110" width="60" height="30" as="geometry" />
        </mxCell>
        <mxCell id="1ZcIljTKb-19BykYpcTP-14" value="list-sorted" style="text;html=1;strokeColor=none;fillColor=none;align=center;verticalAlign=middle;whiteSpace=wrap;rounded=0;" vertex="1" parent="1">
          <mxGeometry x="500" y="50" width="60" height="30" as="geometry" />
        </mxCell>
      </root>
    </mxGraphModel>
  </diagram>
</mxfile>
